<svg xmlns="http://www.w3.org/2000/svg" viewBox="24 65 160 50">
    <path d="M25.368 103.45Q24.843 103.45 25.068 102.925 25.293 102.475 25.893 100.863 26.493 99.25 27.28 97 28.068 94.75 28.893 92.35 29.718 89.95 30.43 87.85 31.143 85.75 31.593 84.55 31.743 84.1 31.893 83.238 32.043 82.375 32.53 81.663 33.018 80.95 34.218 80.95 36.468 80.95 36.468 82 36.468 82.375 36.093 83.275 35.193 85.3 34.143 87.925 33.093 90.55 32.268 92.875T30.993 96.475Q31.743 95.425 33.43 93.475 35.118 91.525 37.218 89.275T41.605 84.925Q43.893 82.825 45.88 81.513 47.868 80.2 49.293 80.2 51.093 80.2 51.093 82.15 51.093 82.825 50.718 84.175 50.043 86.05 48.993 87.813 47.943 89.575 47.118 91.525 45.693 95.05 45.468 97.225 45.393 97.525 45.393 97.788V98.35Q45.393 101.35 47.418 101.35 48.543 101.35 50.418 100T54.28 96.775Q56.268 94.9 57.843 93.138 59.418 91.375 60.018 90.475 60.243 90.25 60.468 90.25 60.768 90.25 60.955 90.475 61.143 90.7 60.993 91.075 60.318 92.35 58.705 94.263 57.093 96.175 55.143 98.088 53.193 100 51.318 101.35 50.193 102.1 48.543 102.7 46.893 103.3 45.243 103.225 43.143 103 42.243 101.763 41.343 100.525 41.343 98.8 41.343 96.775 42.13 94.488 42.918 92.2 43.893 90.175 44.868 88.15 45.468 87.1 46.068 85.9 46.068 85.225 46.068 84.625 45.543 84.625 45.018 84.625 43.968 85.3 42.918 85.975 41.118 87.625 39.468 89.05 37.593 91.338 35.718 93.625 33.955 96.025 32.193 98.425 30.88 100.15 29.568 101.875 29.043 102.175 28.668 102.4 27.355 102.925 26.043 103.45 25.368 103.45ZM62.493 103.225Q61.143 103.225 60.055 102.625 58.968 102.025 58.443 100.375 58.368 100.15 58.33 99.925 58.293 99.7 58.293 99.4 58.293 97.9 58.968 95.65 59.643 93.4 60.618 91.3 60.168 91.9 59.568 92.763 58.968 93.625 57.843 94.975 57.543 95.275 57.168 95.275 56.643 95.275 56.643 94.675 56.643 94.225 56.943 93.925 58.893 91.45 60.43 89.5 61.968 87.55 62.718 86.2 62.718 86.125 62.68 86.088 62.643 86.05 62.643 85.975 62.643 85.75 62.868 85.3 63.468 83.5 64.105 82.263 64.743 81.025 65.493 80.875 65.643 80.875 65.793 80.838 65.943 80.8 66.093 80.8 66.918 80.8 67.593 81.175 68.268 81.55 68.268 82.3 68.268 82.975 67.78 83.95 67.293 84.925 66.543 86.35 64.893 89.8 63.58 92.613 62.268 95.425 62.118 97.225 62.043 97.525 62.043 97.788V98.35Q62.043 101.35 63.993 101.35 65.193 101.35 67.068 100.038 68.943 98.725 70.893 96.813 72.843 94.9 74.455 93.138 76.068 91.375 76.668 90.475 76.893 90.25 77.118 90.25 77.418 90.25 77.605 90.475 77.793 90.7 77.643 91.075 76.968 92.35 75.355 94.263 73.743 96.175 71.755 98.088 69.768 100 67.893 101.35 66.918 102.1 65.455 102.663 63.993 103.225 62.493 103.225ZM96.693 103.225Q95.418 103.225 94.33 102.625 93.243 102.025 92.718 100.375 92.493 99.7 92.493 98.5 92.493 96.85 92.943 94.825 93.393 92.8 93.918 91.375 93.543 91.525 92.53 92.688 91.518 93.85 90.055 95.463 88.593 97.075 86.83 98.688 85.068 100.3 83.193 101.35 81.318 102.4 79.518 102.4 78.318 102.4 76.968 101.688 75.618 100.975 74.793 99.85 73.668 98.35 73.668 96.775 73.668 94.75 75.055 92.575 76.443 90.4 78.655 88.338 80.868 86.275 83.38 84.588 85.893 82.9 88.18 81.738 90.468 80.575 91.893 80.2 93.393 79.75 95.268 79.75 96.318 79.75 97.443 80.013 98.568 80.275 99.318 80.875 99.918 81.175 100.293 81.7 100.668 82.225 100.668 82.825 100.668 83.425 100.143 83.2 99.543 82.3 98.53 82.038 97.518 81.775 96.468 81.775 93.468 81.775 89.868 83.725 86.268 85.675 83.418 88.3 82.518 89.05 80.98 90.888 79.443 92.725 78.168 94.9 76.893 97.075 76.893 98.875 76.893 99.85 77.418 100.6 77.718 101.125 78.393 101.125 79.443 101.125 81.205 100 82.968 98.875 84.843 97.263 86.718 95.65 88.255 94.15 89.793 92.65 90.468 91.975 90.843 91.6 91.93 90.438 93.018 89.275 94.293 87.925 95.568 86.575 96.58 85.6 97.593 84.625 97.893 84.625 98.268 84.625 99.13 84.813 99.993 85 100.593 85.375 101.193 85.75 100.818 86.35 98.868 89.2 97.705 92.313 96.543 95.425 96.318 97.225 96.243 97.525 96.243 97.788V98.35Q96.243 101.35 98.343 101.35 99.468 101.35 101.343 100T105.168 96.775Q107.118 94.9 108.73 93.138 110.343 91.375 110.943 90.475 111.168 90.25 111.393 90.25 111.693 90.25 111.918 90.513 112.143 90.775 111.918 91.15 111.093 92.5 109.518 94.375T105.993 98.125Q104.043 100 102.168 101.35 101.193 102.1 99.693 102.663 98.193 103.225 96.693 103.225ZM106.593 103.45Q106.068 103.45 106.293 102.925 106.518 102.475 107.118 100.863 107.718 99.25 108.505 97 109.293 94.75 110.118 92.35 110.943 89.95 111.655 87.85 112.368 85.75 112.818 84.55 112.968 84.1 113.118 83.238 113.268 82.375 113.755 81.663 114.243 80.95 115.443 80.95 117.693 80.95 117.693 82 117.693 82.375 117.318 83.275 116.418 85.3 115.368 87.925 114.318 90.55 113.493 92.875 112.668 95.2 112.218 96.475 112.968 95.425 114.655 93.475 116.343 91.525 118.443 89.275 120.543 87.025 122.83 84.925 125.118 82.825 127.105 81.513 129.093 80.2 130.518 80.2 132.318 80.2 132.318 82.15 132.318 82.825 131.943 84.175 131.268 86.05 130.218 87.813 129.168 89.575 128.343 91.525 126.918 95.05 126.693 97.225 126.618 97.525 126.618 97.788V98.35Q126.618 101.35 128.643 101.35 129.768 101.35 131.643 100T135.505 96.775Q137.493 94.9 139.068 93.138 140.643 91.375 141.243 90.475 141.468 90.25 141.693 90.25 141.993 90.25 142.18 90.475 142.368 90.7 142.218 91.075 141.543 92.35 139.93 94.263 138.318 96.175 136.368 98.088 134.418 100 132.543 101.35 131.418 102.1 129.768 102.7 128.118 103.3 126.468 103.225 124.368 103 123.468 101.763 122.568 100.525 122.568 98.8 122.568 96.775 123.355 94.488 124.143 92.2 125.118 90.175 126.093 88.15 126.693 87.1 127.293 85.9 127.293 85.225 127.293 84.625 126.768 84.625T125.193 85.3Q124.143 85.975 122.343 87.625 120.693 89.05 118.818 91.338 116.943 93.625 115.18 96.025 113.418 98.425 112.105 100.15 110.793 101.875 110.268 102.175 109.893 102.4 108.58 102.925 107.268 103.45 106.593 103.45ZM140.868 106.225Q137.868 106.225 137.868 104.575 137.868 103.375 139.143 102.1 140.118 101.125 141.318 100.525 142.518 99.925 142.818 99.925 143.193 99.925 143.23 100.225 143.268 100.525 142.893 100.675 142.143 101.125 141.205 101.913 140.268 102.7 140.268 103.6 140.268 104.8 141.693 104.8 143.418 104.8 145.293 103.788 147.168 102.775 148.78 101.2 150.393 99.625 151.405 98.013 152.418 96.4 152.418 95.2 152.418 94.225 151.743 93.4 151.068 92.575 148.968 91.45 147.543 90.625 146.23 89.725 144.918 88.825 144.243 87.55 143.643 88.6 142.705 90.063 141.768 91.525 140.493 93.1 140.043 93.55 139.593 93.55T139.143 93.175Q139.143 92.95 139.518 92.425 141.543 90.025 142.518 88 143.493 85.975 143.868 84.925 144.168 82.75 145.893 80.8 147.618 78.85 150.093 77.388 152.568 75.925 155.155 75.1 157.743 74.275 159.768 74.275T163.368 75.025Q164.943 75.775 164.943 77.425 164.943 78.325 164.418 79.375 163.743 80.8 162.168 81.925 162.093 82 161.943 82 161.343 82 161.343 81.475 161.343 81.1 161.718 80.725 162.318 80.2 162.693 79.45T163.068 78.025Q163.068 76.675 161.493 76.675 159.843 76.675 157.18 77.575 154.518 78.475 152.268 79.9 149.718 81.55 147.993 83.5 146.268 85.45 146.268 86.95 146.268 87.7 146.755 88.338 147.243 88.975 148.668 89.8 149.418 90.25 150.768 90.963 152.118 91.675 153.093 92.275 156.168 94.15 156.168 96.25 156.168 97.975 154.668 99.738 153.168 101.5 150.805 102.963 148.443 104.425 145.818 105.325 143.193 106.225 140.868 106.225ZM165.918 103.225Q164.568 103.225 163.48 102.625 162.393 102.025 161.868 100.375 161.793 100.15 161.755 99.925 161.718 99.7 161.718 99.4 161.718 97.9 162.393 95.65T164.043 91.3Q163.593 91.9 162.993 92.763 162.393 93.625 161.268 94.975 160.968 95.275 160.593 95.275 160.068 95.275 160.068 94.675 160.068 94.225 160.368 93.925 162.318 91.45 163.855 89.5 165.393 87.55 166.143 86.2 166.143 86.125 166.105 86.088 166.068 86.05 166.068 85.975 166.068 85.75 166.293 85.3 166.893 83.5 167.53 82.263 168.168 81.025 168.918 80.875 169.068 80.875 169.218 80.838 169.368 80.8 169.518 80.8 170.343 80.8 171.018 81.175T171.693 82.3Q171.693 82.975 171.205 83.95 170.718 84.925 169.968 86.35 168.318 89.8 167.005 92.613 165.693 95.425 165.543 97.225 165.468 97.525 165.468 97.788V98.35Q165.468 101.35 167.418 101.35 168.618 101.35 170.493 100.038 172.368 98.725 174.318 96.813 176.268 94.9 177.88 93.138 179.493 91.375 180.093 90.475 180.318 90.25 180.543 90.25 180.843 90.25 181.03 90.475 181.218 90.7 181.068 91.075 180.393 92.35 178.78 94.263 177.168 96.175 175.18 98.088 173.193 100 171.318 101.35 170.343 102.1 168.88 102.663 167.418 103.225 165.918 103.225ZM70.668 76.375Q69.693 76.375 68.643 76.188 67.593 76 67.593 74.8 67.593 74.575 68.605 73.75 69.618 72.925 70.705 72.063 71.793 71.2 72.018 71.05 73.293 70 73.593 70 73.968 70 73.593 70.975T73.218 72.7Q73.218 73.075 72.768 73.975T71.718 75.625Q71.118 76.375 70.668 76.375ZM174.093 76.375Q173.118 76.375 172.068 76.188 171.018 76 171.018 74.8 171.018 74.575 172.03 73.75 173.043 72.925 174.13 72.063 175.218 71.2 175.443 71.05 176.718 70 177.018 70 177.393 70 177.018 70.975T176.643 72.7Q176.643 73.075 176.193 73.975 175.743 74.875 175.143 75.625T174.093 76.375" stroke="#FF0000" stroke-width="0.1" fill="#000000"/>
</svg>
