<svg viewBox="-85 -70 324 180" fill="" xmlns="http://www.w3.org/2000/svg">
    <title>niansi @ 廿四</title>
    <path d="
        M.368 33.45Q-.157 33.45.068 32.925.293 32.475.893 30.863 1.493 29.25 2.28 27 3.068 24.75 3.893 22.35 4.718 19.95 5.43 17.85 6.143 15.75 6.593 14.55 6.743 14.1 6.893 13.238 7.043 12.375 7.53 11.663 8.018 10.95 9.218 10.95 11.468 10.95 11.468 12 11.468 12.375 11.093 13.275 10.193 15.3 9.143 17.925 8.093 20.55 7.268 22.875T5.993 26.475Q6.743 25.425 8.43 23.475 10.118 21.525 12.218 19.275T16.605 14.925Q18.893 12.825 20.88 11.513 22.868 10.2 24.293 10.2 26.093 10.2 26.093 12.15 26.093 12.825 25.718 14.175 25.043 16.05 23.993 17.813 22.943 19.575 22.118 21.525 20.693 25.05 20.468 27.225 20.393 27.525 20.393 27.788V28.35Q20.393 31.35 22.418 31.35 23.543 31.35 25.418 30T29.28 26.775Q31.268 24.9 32.843 23.138 34.418 21.375 35.018 20.475 35.243 20.25 35.468 20.25 35.768 20.25 35.955 20.475 36.143 20.7 35.993 21.075 35.318 22.35 33.705 24.263 32.093 26.175 30.143 28.088 28.193 30 26.318 31.35 25.193 32.1 23.543 32.7 21.893 33.3 20.243 33.225 18.143 33 17.243 31.763 16.343 30.525 16.343 28.8 16.343 26.775 17.13 24.488 17.918 22.2 18.893 20.175 19.868 18.15 20.468 17.1 21.068 15.9 21.068 15.225 21.068 14.625 20.543 14.625 20.018 14.625 18.968 15.3 17.918 15.975 16.118 17.625 14.468 19.05 12.593 21.338 10.718 23.625 8.955 26.025 7.193 28.425 5.88 30.15 4.568 31.875 4.043 32.175 3.668 32.4 2.355 32.925 1.043 33.45.368 33.45ZM37.493 33.225Q36.143 33.225 35.055 32.625 33.968 32.025 33.443 30.375 33.368 30.15 33.33 29.925 33.293 29.7 33.293 29.4 33.293 27.9 33.968 25.65 34.643 23.4 35.618 21.3 35.168 21.9 34.568 22.763 33.968 23.625 32.843 24.975 32.543 25.275 32.168 25.275 31.643 25.275 31.643 24.675 31.643 24.225 31.943 23.925 33.893 21.45 35.43 19.5 36.968 17.55 37.718 16.2 37.718 16.125 37.68 16.088 37.643 16.05 37.643 15.975 37.643 15.75 37.868 15.3 38.468 13.5 39.105 12.263 39.743 11.025 40.493 10.875 40.643 10.875 40.793 10.838 40.943 10.8 41.093 10.8 41.918 10.8 42.593 11.175 43.268 11.55 43.268 12.3 43.268 12.975 42.78 13.95 42.293 14.925 41.543 16.35 39.893 19.8 38.58 22.613 37.268 25.425 37.118 27.225 37.043 27.525 37.043 27.788V28.35Q37.043 31.35 38.993 31.35 40.193 31.35 42.068 30.038 43.943 28.725 45.893 26.813 47.843 24.9 49.455 23.138 51.068 21.375 51.668 20.475 51.893 20.25 52.118 20.25 52.418 20.25 52.605 20.475 52.793 20.7 52.643 21.075 51.968 22.35 50.355 24.263 48.743 26.175 46.755 28.088 44.768 30 42.893 31.35 41.918 32.1 40.455 32.663 38.993 33.225 37.493 33.225Z
        M71.693 33.225Q70.418 33.225 69.33 32.625 68.243 32.025 67.718 30.375 67.493 29.7 67.493 28.5 67.493 26.85 67.943 24.825 68.393 22.8 68.918 21.375 68.543 21.525 67.53 22.688 66.518 23.85 65.055 25.463 63.593 27.075 61.83 28.688 60.068 30.3 58.193 31.35 56.318 32.4 54.518 32.4 53.318 32.4 51.968 31.688 50.618 30.975 49.793 29.85 48.668 28.35 48.668 26.775 48.668 24.75 50.055 22.575 51.443 20.4 53.655 18.338 55.868 16.275 58.38 14.588 60.893 12.9 63.18 11.738 65.468 10.575 66.893 10.2 68.393 9.75 70.268 9.75 71.318 9.75 72.443 10.013 73.568 10.275 74.318 10.875 74.918 11.175 75.293 11.7 75.668 12.225 75.668 12.825 75.668 13.425 75.143 13.2 74.543 12.3 73.53 12.038 72.518 11.775 71.468 11.775 68.468 11.775 64.868 13.725 61.268 15.675 58.418 18.3 57.518 19.05 55.98 20.888 54.443 22.725 53.168 24.9 51.893 27.075 51.893 28.875 51.893 29.85 52.418 30.6 52.718 31.125 53.393 31.125 54.443 31.125 56.205 30 57.968 28.875 59.843 27.263 61.718 25.65 63.255 24.15 64.793 22.65 65.468 21.975 65.843 21.6 66.93 20.438 68.018 19.275 69.293 17.925 70.568 16.575 71.58 15.6 72.593 14.625 72.893 14.625 73.268 14.625 74.13 14.813 74.993 15 75.593 15.375 76.193 15.75 75.818 16.35 73.868 19.2 72.705 22.313 71.543 25.425 71.318 27.225 71.243 27.525 71.243 27.788V28.35Q71.243 31.35 73.343 31.35 74.468 31.35 76.343 30T80.168 26.775Q82.118 24.9 83.73 23.138 85.343 21.375 85.943 20.475 86.168 20.25 86.393 20.25 86.693 20.25 86.918 20.513 87.143 20.775 86.918 21.15 86.093 22.5 84.518 24.375T80.993 28.125Q79.043 30 77.168 31.35 76.193 32.1 74.693 32.663 73.193 33.225 71.693 33.225Z
        M81.593 33.45Q81.068 33.45 81.293 32.925 81.518 32.475 82.118 30.863 82.718 29.25 83.505 27 84.293 24.75 85.118 22.35 85.943 19.95 86.655 17.85 87.368 15.75 87.818 14.55 87.968 14.1 88.118 13.238 88.268 12.375 88.755 11.663 89.243 10.95 90.443 10.95 92.693 10.95 92.693 12 92.693 12.375 92.318 13.275 91.418 15.3 90.368 17.925 89.318 20.55 88.493 22.875 87.668 25.2 87.218 26.475 87.968 25.425 89.655 23.475 91.343 21.525 93.443 19.275 95.543 17.025 97.83 14.925 100.118 12.825 102.105 11.513 104.093 10.2 105.518 10.2 107.318 10.2 107.318 12.15 107.318 12.825 106.943 14.175 106.268 16.05 105.218 17.813 104.168 19.575 103.343 21.525 101.918 25.05 101.693 27.225 101.618 27.525 101.618 27.788V28.35Q101.618 31.35 103.643 31.35 104.768 31.35 106.643 30T110.505 26.775Q112.493 24.9 114.068 23.138 115.643 21.375 116.243 20.475 116.468 20.25 116.693 20.25 116.993 20.25 117.18 20.475 117.368 20.7 117.218 21.075 116.543 22.35 114.93 24.263 113.318 26.175 111.368 28.088 109.418 30 107.543 31.35 106.418 32.1 104.768 32.7 103.118 33.3 101.468 33.225 99.368 33 98.468 31.763 97.568 30.525 97.568 28.8 97.568 26.775 98.355 24.488 99.143 22.2 100.118 20.175 101.093 18.15 101.693 17.1 102.293 15.9 102.293 15.225 102.293 14.625 101.768 14.625T100.193 15.3Q99.143 15.975 97.343 17.625 95.693 19.05 93.818 21.338 91.943 23.625 90.18 26.025 88.418 28.425 87.105 30.15 85.793 31.875 85.268 32.175 84.893 32.4 83.58 32.925 82.268 33.45 81.593 33.45Z
        M115.868 36.225Q112.868 36.225 112.868 34.575 112.868 33.375 114.143 32.1 115.118 31.125 116.318 30.525 117.518 29.925 117.818 29.925 118.193 29.925 118.23 30.225 118.268 30.525 117.893 30.675 117.143 31.125 116.205 31.913 115.268 32.7 115.268 33.6 115.268 34.8 116.693 34.8 118.418 34.8 120.293 33.788 122.168 32.775 123.78 31.2 125.393 29.625 126.405 28.013 127.418 26.4 127.418 25.2 127.418 24.225 126.743 23.4 126.068 22.575 123.968 21.45 122.543 20.625 121.23 19.725 119.918 18.825 119.243 17.55 118.643 18.6 117.705 20.063 116.768 21.525 115.493 23.1 115.043 23.55 114.593 23.55T114.143 23.175Q114.143 22.95 114.518 22.425 116.543 20.025 117.518 18 118.493 15.975 118.868 14.925 119.168 12.75 120.893 10.8 122.618 8.85 125.093 7.388 127.568 5.925 130.155 5.1 132.743 4.275 134.768 4.275T138.368 5.025Q139.943 5.775 139.943 7.425 139.943 8.325 139.418 9.375 138.743 10.8 137.168 11.925 137.093 12 136.943 12 136.343 12 136.343 11.475 136.343 11.1 136.718 10.725 137.318 10.2 137.693 9.45T138.068 8.025Q138.068 6.675 136.493 6.675 134.843 6.675 132.18 7.575 129.518 8.475 127.268 9.9 124.718 11.55 122.993 13.5 121.268 15.45 121.268 16.95 121.268 17.7 121.755 18.338 122.243 18.975 123.668 19.8 124.418 20.25 125.768 20.963 127.118 21.675 128.093 22.275 131.168 24.15 131.168 26.25 131.168 27.975 129.668 29.738 128.168 31.5 125.805 32.963 123.443 34.425 120.818 35.325 118.193 36.225 115.868 36.225Z
        M140.918 33.225Q139.568 33.225 138.48 32.625 137.393 32.025 136.868 30.375 136.793 30.15 136.755 29.925 136.718 29.7 136.718 29.4 136.718 27.9 137.393 25.65T139.043 21.3Q138.593 21.9 137.993 22.763 137.393 23.625 136.268 24.975 135.968 25.275 135.593 25.275 135.068 25.275 135.068 24.675 135.068 24.225 135.368 23.925 137.318 21.45 138.855 19.5 140.393 17.55 141.143 16.2 141.143 16.125 141.105 16.088 141.068 16.05 141.068 15.975 141.068 15.75 141.293 15.3 141.893 13.5 142.53 12.263 143.168 11.025 143.918 10.875 144.068 10.875 144.218 10.838 144.368 10.8 144.518 10.8 145.343 10.8 146.018 11.175T146.693 12.3Q146.693 12.975 146.205 13.95 145.718 14.925 144.968 16.35 143.318 19.8 142.005 22.613 140.693 25.425 140.543 27.225 140.468 27.525 140.468 27.788V28.35Q140.468 31.35 142.418 31.35 143.618 31.35 145.493 30.038 147.368 28.725 149.318 26.813 151.268 24.9 152.88 23.138 154.493 21.375 155.093 20.475 155.318 20.25 155.543 20.25 155.843 20.25 156.03 20.475 156.218 20.7 156.068 21.075 155.393 22.35 153.78 24.263 152.168 26.175 150.18 28.088 148.193 30 146.318 31.35 145.343 32.1 143.88 32.663 142.418 33.225 140.918 33.225Z
        M45.668 6.375Q44.693 6.375 43.643 6.188 42.593 6 42.593 4.8 42.593 4.575 43.605 3.75 44.618 2.925 45.705 2.063 46.793 1.2 47.018 1.05 48.293 0 48.593 0 48.968 0 48.593.975T48.218 2.7Q48.218 3.075 47.768 3.975T46.718 5.625Q46.118 6.375 45.668 6.375Z
        M149.093 6.375Q148.118 6.375 147.068 6.188 146.018 6 146.018 4.8 146.018 4.575 147.03 3.75 148.043 2.925 149.13 2.063 150.218 1.2 150.443 1.05 151.718 0 152.018 0 152.393 0 152.018.975T151.643 2.7Q151.643 3.075 151.193 3.975 150.743 4.875 150.143 5.625T149.093 6.375Z"
    />
</svg>
